<svg width="40" height="24" viewBox="0 0 40 24" fill="none" xmlns="http://www.w3.org/2000/svg">
<path d="M23.4495 22.0831C22.5055 21.7152 21.7024 21.2046 21.0393 20.5495C20.3763 19.8944 19.8598 19.1032 19.4883 18.1743C19.1168 17.2454 18.9307 16.2334 18.9307 15.1373C18.9307 14.0413 19.116 13.0275 19.4883 12.0953C19.8598 11.163 20.3771 10.3693 21.0393 9.71507C21.7024 9.05996 22.5055 8.54932 23.4495 8.18145C24.3935 7.81359 25.4206 7.63049 26.5318 7.63049C27.643 7.63049 28.6471 7.81275 29.5845 8.17641C30.5218 8.54092 31.3216 9.04821 31.9847 9.69995C32.6478 10.3517 33.1659 11.1445 33.5415 12.0802C33.9163 13.0158 34.1041 14.0346 34.1041 15.1373C34.1041 16.2401 33.9163 17.2572 33.5415 18.1894C33.1667 19.1217 32.6478 19.9137 31.9847 20.5646C31.3216 21.2164 30.5218 21.7236 29.5845 22.0881C28.6471 22.4527 27.6298 22.6341 26.5318 22.6341C25.4338 22.6341 24.3926 22.4501 23.4495 22.0831ZM28.3448 18.48C28.8835 18.1357 29.2986 17.6712 29.5902 17.0867C29.8818 16.5021 30.0268 15.8521 30.0268 15.1373C30.0268 14.4226 29.881 13.7725 29.5902 13.188C29.2986 12.6034 28.8843 12.139 28.3448 11.7946C27.8061 11.4503 27.1982 11.2781 26.5219 11.2781C25.8457 11.2781 25.1677 11.4486 24.6323 11.7896C24.0969 12.1306 23.6801 12.595 23.382 13.1829C23.0838 13.7708 22.9355 14.4226 22.9355 15.1373C22.9355 15.8521 23.0846 16.5021 23.382 17.0867C23.6801 17.6712 24.0986 18.1357 24.6373 18.48C25.176 18.8244 25.8522 18.9966 26.5219 18.9966C27.1916 18.9966 27.8052 18.8244 28.3448 18.48Z" fill="#101010"/>
<path d="M14.6686 15.8794C14.2312 15.4334 14.2312 14.7095 14.6686 14.2635L19.2764 9.56522C19.2953 9.5459 19.2821 9.51231 19.255 9.51231L13.0327 9.56942C13.0245 9.56942 13.017 9.57278 13.0113 9.57866L11.5978 11.0199C11.1299 11.4969 10.3721 11.4969 9.90427 11.0199L5.30635 6.33337C5.30059 6.32749 5.29317 6.32413 5.28494 6.32413L0.694435 6.30482C0.0783042 6.3023 -0.232232 7.06155 0.203507 7.50584L6.70006 14.1291C7.20993 14.649 7.20993 15.4922 6.70006 16.013L3.30063 19.4791C2.88219 19.9058 3.17708 20.6348 3.7685 20.6373L8.38536 20.6566C8.39359 20.6566 8.40101 20.6533 8.40677 20.6474L10.0039 19.0189C10.4158 18.5989 11.0838 18.5989 11.4957 19.0189L16.1932 23.8087C16.199 23.8146 16.2064 23.8179 16.2147 23.8179L20.904 23.8146C21.4748 23.8146 21.7607 23.1108 21.357 22.6992L14.6677 15.8786L14.6686 15.8794Z" fill="#101010"/>
<mask id="mask0_286_9145" style="mask-type:alpha" maskUnits="userSpaceOnUse" x="28" y="0" width="12" height="12">
<path d="M33.86 2.92524C33.1855 2.25046 32.7238 1.07213 32.4947 0C32.2652 1.07235 31.804 2.25093 31.1292 2.92571C30.4547 3.60002 29.276 4.06171 28.2041 4.29129C29.2765 4.52041 30.4549 4.98183 31.1295 5.65663C31.804 6.33116 32.2657 7.50974 32.4951 8.58187C32.7243 7.50952 33.1858 6.33094 33.8602 5.65617C34.5348 4.98164 35.7135 4.52017 36.7854 4.29058C35.7133 4.06146 34.5348 3.5998 33.86 2.92524Z" fill="white"/>
<path d="M38.2412 8.32804C37.8386 7.92521 37.5623 7.22088 37.4254 6.58044C37.2883 7.22088 37.013 7.92518 36.6099 8.32825C36.2068 8.73089 35.5026 9.00692 34.8623 9.14404C35.5028 9.28113 36.2068 9.55672 36.6099 9.95979C37.013 10.3627 37.2888 11.067 37.4259 11.7074C37.5627 11.0667 37.8386 10.3627 38.2414 9.95958C38.6443 9.55672 39.3486 9.28089 39.9888 9.14357C39.3486 9.0067 38.6443 8.73089 38.2412 8.32804Z" fill="white"/>
</mask>
<g mask="url(#mask0_286_9145)">
<rect x="28.1787" width="11.8214" height="11.7163" fill="url(#paint0_linear_286_9145)"/>
</g>
<defs>
<linearGradient id="paint0_linear_286_9145" x1="30.4624" y1="2.46146" x2="37.847" y2="10.1538" gradientUnits="userSpaceOnUse">
<stop stop-color="#4C67F7"/>
<stop offset="1" stop-color="#069DF2"/>
</linearGradient>
</defs>
</svg>
