<svg width="176" height="105" viewBox="0 0 176 105" fill="none" xmlns="http://www.w3.org/2000/svg">
<path d="M103.176 97.3524C99.0224 95.7306 95.4887 93.4795 92.5712 90.5915C89.6536 87.7035 87.3812 84.2157 85.7466 80.1206C84.1121 76.0256 83.293 71.564 83.293 66.7322C83.293 61.9003 84.1084 57.4313 85.7466 53.3215C87.3812 49.2116 89.6572 45.7127 92.5712 42.8284C95.4887 39.9404 99.0224 37.6893 103.176 36.0676C107.329 34.4458 111.849 33.6387 116.738 33.6387C121.627 33.6387 126.045 34.4421 130.17 36.0453C134.294 37.6523 137.813 39.8886 140.731 42.7618C143.648 45.635 145.928 49.1302 147.581 53.2548C149.23 57.3795 150.056 61.8707 150.056 66.7322C150.056 71.5936 149.23 76.0774 147.581 80.1873C145.932 84.2971 143.648 87.7887 140.731 90.6581C137.813 93.5313 134.294 95.7677 130.17 97.3746C126.045 98.9815 121.569 99.7813 116.738 99.7813C111.907 99.7813 107.326 98.9704 103.176 97.3524ZM124.715 81.4684C127.085 79.9503 128.912 77.9028 130.195 75.3258C131.478 72.7488 132.116 69.8831 132.116 66.7322C132.116 63.5813 131.474 60.7155 130.195 58.1385C128.912 55.5615 127.089 53.514 124.715 51.996C122.345 50.4779 119.67 49.7189 116.694 49.7189C113.719 49.7189 110.736 50.4705 108.38 51.9738C106.025 53.477 104.191 55.5245 102.879 58.1163C101.567 60.7081 100.914 63.5813 100.914 66.7322C100.914 69.8831 101.57 72.7488 102.879 75.3258C104.191 77.9028 106.032 79.9503 108.402 81.4684C110.772 82.9864 113.748 83.7455 116.694 83.7455C119.641 83.7455 122.341 82.9864 124.715 81.4684Z" fill="white"/>
<path d="M64.5417 70.0035C62.6172 68.0374 62.6172 64.8458 64.5417 62.8798L84.816 42.1676C84.8994 42.0825 84.8414 41.9344 84.7218 41.9344L57.3439 42.1861C57.3076 42.1861 57.275 42.2009 57.2496 42.2269L51.0303 48.5805C48.9717 50.6835 45.6374 50.6835 43.5788 48.5805L23.3479 27.9202C23.3226 27.8942 23.29 27.8794 23.2537 27.8794L3.05551 27.7943C0.344538 27.7832 -1.02182 31.1303 0.895432 33.0889L29.4803 62.2874C31.7237 64.5792 31.7237 68.2966 29.4803 70.5922L14.5228 85.8727C12.6816 87.7536 13.9791 90.9674 16.5814 90.9785L36.8956 91.0637C36.9318 91.0637 36.9644 91.0489 36.9898 91.0229L44.0173 83.8437C45.8295 81.9924 48.7688 81.9924 50.5809 83.8437L71.2503 104.959C71.2756 104.985 71.3083 105 71.3445 105L91.9776 104.985C94.4893 104.985 95.7469 101.883 93.971 100.068L64.5381 69.9998L64.5417 70.0035Z" fill="white"/>
<g clip-path="url(#clip0_596_10212)">
<mask id="mask0_596_10212" style="mask-type:alpha" maskUnits="userSpaceOnUse" x="124" y="0" width="52" height="52">
<path d="M148.99 12.8957C146.022 9.92101 143.99 4.72639 142.982 -6.10352e-05C141.972 4.72735 139.943 9.92306 136.974 12.8978C134.006 15.8704 128.82 17.9058 124.104 18.9179C128.822 19.928 134.007 21.9621 136.975 24.937C139.943 27.9106 141.974 33.1063 142.984 37.8327C143.992 33.1053 146.023 27.9096 148.991 24.9349C151.958 21.9613 157.145 19.9269 161.861 18.9148C157.144 17.9047 151.959 15.8695 148.99 12.8957Z" fill="white"/>
<path d="M168.262 36.7136C166.49 34.9378 165.275 31.8328 164.672 29.0095C164.069 31.8328 162.857 34.9377 161.084 36.7146C159.31 38.4896 156.212 39.7065 153.395 40.311C156.213 40.9153 159.31 42.1302 161.084 43.9072C162.857 45.6832 164.071 48.788 164.674 51.6114C165.276 48.787 166.49 45.6832 168.263 43.9062C170.035 42.1302 173.134 40.9142 175.951 40.3089C173.134 39.7055 170.035 38.4896 168.262 36.7136Z" fill="white"/>
</mask>
<g mask="url(#mask0_596_10212)">
<rect x="123.988" y="0.00012207" width="52.014" height="51.6507" fill="url(#paint0_linear_596_10212)"/>
</g>
</g>
<defs>
<linearGradient id="paint0_linear_596_10212" x1="134.036" y1="10.8514" x2="166.594" y2="44.7001" gradientUnits="userSpaceOnUse">
<stop stop-color="#4C67F7"/>
<stop offset="1" stop-color="#069DF2"/>
</linearGradient>
<clipPath id="clip0_596_10212">
<rect width="51.9369" height="51.6507" fill="white" transform="translate(124.061 0.000183105)"/>
</clipPath>
</defs>
</svg>
